<mxfile host="app.diagrams.net" modified="2024-05-10T00:13:31.875Z" agent="Mozilla/5.0 (Windows NT 10.0; Win64; x64; rv:125.0) Gecko/20100101 Firefox/125.0" etag="IItLtidUsGSKfGUpQoxz" version="24.3.1" type="device">
  <diagram name="Page-1" id="Ar5Fvcv2Qq2U9sIU4VO9">
    <mxGraphModel dx="574" dy="298" grid="1" gridSize="10" guides="1" tooltips="1" connect="1" arrows="1" fold="1" page="1" pageScale="1" pageWidth="827" pageHeight="1169" math="0" shadow="0">
      <root>
        <mxCell id="0" />
        <mxCell id="1" parent="0" />
        <mxCell id="fRoHSWvrRWju-dy-VI0X-46" value="" style="rounded=0;whiteSpace=wrap;html=1;fillColor=none;strokeColor=none;" parent="1" vertex="1">
          <mxGeometry x="119" y="200" width="572" height="283" as="geometry" />
        </mxCell>
        <mxCell id="fRoHSWvrRWju-dy-VI0X-31" value="&lt;div&gt;&lt;font face=&quot;Roboto&quot; data-font-src=&quot;https://fonts.googleapis.com/css?family=Roboto&quot;&gt;Client Application&lt;/font&gt;&lt;/div&gt;&lt;div&gt;&lt;font face=&quot;Roboto&quot; data-font-src=&quot;https://fonts.googleapis.com/css?family=Roboto&quot;&gt;&lt;i&gt;&lt;font style=&quot;font-size: 9px;&quot; data-font-src=&quot;https://fonts.googleapis.com/css?family=Roboto&quot;&gt;browser WASM&lt;/font&gt;&lt;/i&gt;&lt;br&gt;&lt;/font&gt;&lt;/div&gt;" style="rounded=0;whiteSpace=wrap;html=1;fillColor=#fff2cc;strokeColor=#d6b656;dashed=1;align=left;verticalAlign=bottom;spacing=17;strokeWidth=1;sketch=1;curveFitting=1;jiggle=2;" parent="1" vertex="1">
          <mxGeometry x="120" y="206" width="270" height="195" as="geometry" />
        </mxCell>
        <mxCell id="fRoHSWvrRWju-dy-VI0X-19" value="Internet" style="ellipse;shape=cloud;whiteSpace=wrap;html=1;rounded=0;sketch=1;jiggle=2;curveFitting=1;strokeColor=#6c8ebf;align=center;verticalAlign=middle;fontFamily=Roboto;fontSize=9;labelBackgroundColor=none;fillColor=#dae8fc;fontSource=https%3A%2F%2Ffonts.googleapis.com%2Fcss%3Ffamily%3DRoboto;fontStyle=2;spacingTop=3;" parent="1" vertex="1">
          <mxGeometry x="429" y="256.75" width="120" height="94.5" as="geometry" />
        </mxCell>
        <mxCell id="fRoHSWvrRWju-dy-VI0X-14" style="rounded=0;orthogonalLoop=1;jettySize=auto;html=1;exitX=0.25;exitY=1;exitDx=0;exitDy=0;sketch=1;jiggle=2;curveFitting=1;strokeColor=default;align=center;verticalAlign=middle;fontFamily=Helvetica;fontSize=11;fontColor=default;labelBackgroundColor=default;endArrow=classic;" parent="1" source="fRoHSWvrRWju-dy-VI0X-2" target="fRoHSWvrRWju-dy-VI0X-7" edge="1">
          <mxGeometry relative="1" as="geometry" />
        </mxCell>
        <mxCell id="fRoHSWvrRWju-dy-VI0X-2" value="Cache Service" style="rounded=0;whiteSpace=wrap;html=1;fontFamily=Roboto;sketch=1;jiggle=2;curveFitting=1;strokeColor=default;align=center;verticalAlign=middle;fontSize=11;fontColor=default;labelBackgroundColor=default;fontSource=https%3A%2F%2Ffonts.googleapis.com%2Fcss%3Ffamily%3DRoboto;" parent="1" vertex="1">
          <mxGeometry x="270" y="360" width="105" height="30" as="geometry" />
        </mxCell>
        <mxCell id="fRoHSWvrRWju-dy-VI0X-12" style="edgeStyle=orthogonalEdgeStyle;rounded=0;orthogonalLoop=1;jettySize=auto;html=1;exitX=0;exitY=0.75;exitDx=0;exitDy=0;entryX=1;entryY=0.75;entryDx=0;entryDy=0;fillColor=#d5e8d4;strokeColor=#82b366;sketch=1;jiggle=2;curveFitting=1;align=center;verticalAlign=middle;fontFamily=Helvetica;fontSize=11;fontColor=default;labelBackgroundColor=default;endArrow=classic;" parent="1" source="fRoHSWvrRWju-dy-VI0X-3" target="fRoHSWvrRWju-dy-VI0X-5" edge="1">
          <mxGeometry relative="1" as="geometry">
            <mxPoint x="549.9999999999998" y="317.5" as="sourcePoint" />
            <Array as="points" />
          </mxGeometry>
        </mxCell>
        <mxCell id="fRoHSWvrRWju-dy-VI0X-3" value="&lt;div&gt;API&lt;br&gt;&lt;i&gt;&lt;font style=&quot;font-size: 9px;&quot;&gt;backend server&lt;/font&gt;&lt;/i&gt;&lt;br&gt;&lt;/div&gt;" style="rounded=0;whiteSpace=wrap;html=1;fontFamily=Roboto;sketch=1;jiggle=2;curveFitting=1;strokeColor=default;align=center;verticalAlign=middle;fontSize=11;fontColor=default;labelBackgroundColor=default;fontSource=https%3A%2F%2Ffonts.googleapis.com%2Fcss%3Ffamily%3DRoboto;spacingRight=0;" parent="1" vertex="1">
          <mxGeometry x="580" y="280" width="110" height="50" as="geometry" />
        </mxCell>
        <mxCell id="fRoHSWvrRWju-dy-VI0X-4" value="DAL Service" style="rounded=0;whiteSpace=wrap;html=1;fontFamily=Roboto;sketch=1;jiggle=2;curveFitting=1;strokeColor=default;align=center;verticalAlign=middle;fontSize=11;fontColor=default;labelBackgroundColor=default;fontSource=https%3A%2F%2Ffonts.googleapis.com%2Fcss%3Ffamily%3DRoboto;" parent="1" vertex="1">
          <mxGeometry x="270" y="220" width="105" height="30" as="geometry" />
        </mxCell>
        <mxCell id="fRoHSWvrRWju-dy-VI0X-11" style="edgeStyle=orthogonalEdgeStyle;rounded=0;orthogonalLoop=1;jettySize=auto;html=1;exitX=0.75;exitY=0;exitDx=0;exitDy=0;entryX=0.75;entryY=1;entryDx=0;entryDy=0;sketch=1;jiggle=2;curveFitting=1;strokeColor=#82b366;align=center;verticalAlign=middle;fontFamily=Helvetica;fontSize=11;fontColor=default;labelBackgroundColor=default;endArrow=classic;fillColor=#d5e8d4;" parent="1" source="fRoHSWvrRWju-dy-VI0X-5" target="fRoHSWvrRWju-dy-VI0X-4" edge="1">
          <mxGeometry relative="1" as="geometry" />
        </mxCell>
        <mxCell id="fRoHSWvrRWju-dy-VI0X-18" style="edgeStyle=orthogonalEdgeStyle;rounded=0;orthogonalLoop=1;jettySize=auto;html=1;exitX=0.75;exitY=1;exitDx=0;exitDy=0;entryX=0.75;entryY=0;entryDx=0;entryDy=0;sketch=1;jiggle=2;curveFitting=1;strokeColor=#82b366;align=center;verticalAlign=middle;fontFamily=Helvetica;fontSize=11;fontColor=default;labelBackgroundColor=default;endArrow=classic;fillColor=#d5e8d4;" parent="1" source="fRoHSWvrRWju-dy-VI0X-5" target="fRoHSWvrRWju-dy-VI0X-2" edge="1">
          <mxGeometry relative="1" as="geometry" />
        </mxCell>
        <mxCell id="fRoHSWvrRWju-dy-VI0X-30" style="edgeStyle=orthogonalEdgeStyle;rounded=0;orthogonalLoop=1;jettySize=auto;html=1;exitX=1;exitY=0.25;exitDx=0;exitDy=0;entryX=0;entryY=0.25;entryDx=0;entryDy=0;sketch=1;jiggle=2;curveFitting=1;strokeColor=default;align=center;verticalAlign=middle;fontFamily=Helvetica;fontSize=11;fontColor=default;labelBackgroundColor=default;endArrow=classic;" parent="1" source="fRoHSWvrRWju-dy-VI0X-5" target="fRoHSWvrRWju-dy-VI0X-3" edge="1">
          <mxGeometry relative="1" as="geometry" />
        </mxCell>
        <mxCell id="fRoHSWvrRWju-dy-VI0X-44" style="edgeStyle=orthogonalEdgeStyle;rounded=0;orthogonalLoop=1;jettySize=auto;html=1;exitX=0.25;exitY=1;exitDx=0;exitDy=0;entryX=0.25;entryY=0;entryDx=0;entryDy=0;sketch=1;curveFitting=1;jiggle=2;" parent="1" source="fRoHSWvrRWju-dy-VI0X-5" target="fRoHSWvrRWju-dy-VI0X-2" edge="1">
          <mxGeometry relative="1" as="geometry" />
        </mxCell>
        <mxCell id="fRoHSWvrRWju-dy-VI0X-5" value="Cache FaÃ§ade" style="rounded=0;whiteSpace=wrap;html=1;fontFamily=Roboto;sketch=1;jiggle=2;curveFitting=1;strokeColor=default;align=center;verticalAlign=middle;fontSize=11;fontColor=default;labelBackgroundColor=default;fontSource=https%3A%2F%2Ffonts.googleapis.com%2Fcss%3Ffamily%3DRoboto;" parent="1" vertex="1">
          <mxGeometry x="270" y="280" width="105" height="50" as="geometry" />
        </mxCell>
        <mxCell id="fRoHSWvrRWju-dy-VI0X-15" style="rounded=0;orthogonalLoop=1;jettySize=auto;html=1;entryX=0.75;entryY=1;entryDx=0;entryDy=0;sketch=1;jiggle=2;curveFitting=1;strokeColor=default;align=center;verticalAlign=middle;fontFamily=Helvetica;fontSize=11;fontColor=default;labelBackgroundColor=default;endArrow=classic;" parent="1" source="fRoHSWvrRWju-dy-VI0X-7" target="fRoHSWvrRWju-dy-VI0X-2" edge="1">
          <mxGeometry relative="1" as="geometry" />
        </mxCell>
        <mxCell id="fRoHSWvrRWju-dy-VI0X-7" value="Local Storage&lt;br&gt;&lt;font size=&quot;1&quot;&gt;&lt;i&gt;&lt;font style=&quot;font-size: 9px;&quot;&gt;browser&lt;/font&gt;&lt;/i&gt;&lt;/font&gt;" style="shape=cylinder3;whiteSpace=wrap;html=1;boundedLbl=1;backgroundOutline=1;size=9.14285714285711;fontFamily=Roboto;rounded=0;sketch=1;jiggle=2;curveFitting=1;strokeColor=default;align=center;verticalAlign=middle;fontSize=11;fontColor=default;labelBackgroundColor=default;fontSource=https%3A%2F%2Ffonts.googleapis.com%2Fcss%3Ffamily%3DRoboto;" parent="1" vertex="1">
          <mxGeometry x="277.5" y="413" width="90" height="67" as="geometry" />
        </mxCell>
        <mxCell id="fRoHSWvrRWju-dy-VI0X-34" value="" style="endArrow=classic;html=1;rounded=0;sketch=1;curveFitting=1;jiggle=2;fontFamily=Roboto;fontSource=https%3A%2F%2Ffonts.googleapis.com%2Fcss%3Ffamily%3DRoboto;align=left;spacingTop=0;" parent="1" edge="1">
          <mxGeometry width="50" height="50" relative="1" as="geometry">
            <mxPoint x="460" y="400" as="sourcePoint" />
            <mxPoint x="500" y="400" as="targetPoint" />
          </mxGeometry>
        </mxCell>
        <mxCell id="fRoHSWvrRWju-dy-VI0X-38" value="communication" style="edgeLabel;html=1;align=left;verticalAlign=middle;resizable=0;points=[];spacingLeft=45;spacingBottom=2;fontFamily=Roboto;fontSource=https%3A%2F%2Ffonts.googleapis.com%2Fcss%3Ffamily%3DRoboto;" parent="fRoHSWvrRWju-dy-VI0X-34" vertex="1" connectable="0">
          <mxGeometry x="-0.2" relative="1" as="geometry">
            <mxPoint x="-16" as="offset" />
          </mxGeometry>
        </mxCell>
        <mxCell id="fRoHSWvrRWju-dy-VI0X-35" value="UI" style="rounded=0;whiteSpace=wrap;html=1;fontFamily=Roboto;sketch=1;jiggle=2;curveFitting=1;strokeColor=default;align=center;verticalAlign=middle;fontSize=11;fontColor=default;labelBackgroundColor=default;fontSource=https%3A%2F%2Ffonts.googleapis.com%2Fcss%3Ffamily%3DRoboto;" parent="1" vertex="1">
          <mxGeometry x="135" y="220" width="105" height="30" as="geometry" />
        </mxCell>
        <mxCell id="fRoHSWvrRWju-dy-VI0X-39" value="" style="endArrow=classic;html=1;rounded=0;sketch=1;curveFitting=1;jiggle=2;fontFamily=Roboto;fontSource=https%3A%2F%2Ffonts.googleapis.com%2Fcss%3Ffamily%3DRoboto;align=left;spacingTop=0;fillColor=#f8cecc;strokeColor=#b85450;" parent="1" edge="1">
          <mxGeometry width="50" height="50" relative="1" as="geometry">
            <mxPoint x="460" y="417" as="sourcePoint" />
            <mxPoint x="500" y="417" as="targetPoint" />
          </mxGeometry>
        </mxCell>
        <mxCell id="fRoHSWvrRWju-dy-VI0X-40" value="cache miss/cache record expired" style="edgeLabel;html=1;align=left;verticalAlign=middle;resizable=0;points=[];spacingLeft=45;spacingBottom=2;fontFamily=Roboto;fontSource=https%3A%2F%2Ffonts.googleapis.com%2Fcss%3Ffamily%3DRoboto;" parent="fRoHSWvrRWju-dy-VI0X-39" vertex="1" connectable="0">
          <mxGeometry x="-0.2" relative="1" as="geometry">
            <mxPoint x="-16" as="offset" />
          </mxGeometry>
        </mxCell>
        <mxCell id="fRoHSWvrRWju-dy-VI0X-41" value="" style="endArrow=classic;html=1;rounded=0;sketch=1;curveFitting=1;jiggle=2;fontFamily=Roboto;fontSource=https%3A%2F%2Ffonts.googleapis.com%2Fcss%3Ffamily%3DRoboto;align=left;spacingTop=0;fillColor=#d5e8d4;strokeColor=#82b366;" parent="1" edge="1">
          <mxGeometry width="50" height="50" relative="1" as="geometry">
            <mxPoint x="460" y="433" as="sourcePoint" />
            <mxPoint x="500" y="433" as="targetPoint" />
          </mxGeometry>
        </mxCell>
        <mxCell id="fRoHSWvrRWju-dy-VI0X-42" value="requested data" style="edgeLabel;html=1;align=left;verticalAlign=middle;resizable=0;points=[];spacingLeft=45;spacingBottom=2;fontFamily=Roboto;fontSource=https%3A%2F%2Ffonts.googleapis.com%2Fcss%3Ffamily%3DRoboto;" parent="fRoHSWvrRWju-dy-VI0X-41" vertex="1" connectable="0">
          <mxGeometry x="-0.2" relative="1" as="geometry">
            <mxPoint x="-16" as="offset" />
          </mxGeometry>
        </mxCell>
        <mxCell id="fRoHSWvrRWju-dy-VI0X-43" style="edgeStyle=orthogonalEdgeStyle;rounded=0;orthogonalLoop=1;jettySize=auto;html=1;exitX=0.5;exitY=0;exitDx=0;exitDy=0;entryX=0.5;entryY=1;entryDx=0;entryDy=0;sketch=1;jiggle=2;curveFitting=1;strokeColor=#b85450;align=center;verticalAlign=middle;fontFamily=Helvetica;fontSize=11;fontColor=default;labelBackgroundColor=default;endArrow=classic;fillColor=#f8cecc;" parent="1" source="fRoHSWvrRWju-dy-VI0X-2" target="fRoHSWvrRWju-dy-VI0X-5" edge="1">
          <mxGeometry relative="1" as="geometry" />
        </mxCell>
        <mxCell id="fRoHSWvrRWju-dy-VI0X-9" style="edgeStyle=orthogonalEdgeStyle;rounded=0;orthogonalLoop=1;jettySize=auto;html=1;sketch=1;curveFitting=1;jiggle=2;" parent="1" source="fRoHSWvrRWju-dy-VI0X-4" target="fRoHSWvrRWju-dy-VI0X-5" edge="1">
          <mxGeometry relative="1" as="geometry">
            <Array as="points">
              <mxPoint x="290" y="260" />
              <mxPoint x="290" y="260" />
            </Array>
          </mxGeometry>
        </mxCell>
        <mxCell id="fRoHSWvrRWju-dy-VI0X-36" style="edgeStyle=orthogonalEdgeStyle;rounded=0;orthogonalLoop=1;jettySize=auto;html=1;startArrow=classic;startFill=1;sketch=1;curveFitting=1;jiggle=2;" parent="1" source="fRoHSWvrRWju-dy-VI0X-35" target="fRoHSWvrRWju-dy-VI0X-4" edge="1">
          <mxGeometry relative="1" as="geometry" />
        </mxCell>
      </root>
    </mxGraphModel>
  </diagram>
</mxfile>
